<?xml version="1.0" encoding="UTF-8" standalone="no"?><!-- Generator: Gravit.io --><svg xmlns="http://www.w3.org/2000/svg" xmlns:xlink="http://www.w3.org/1999/xlink" style="isolation:isolate" viewBox="0 0 1000 1000" width="1000pt" height="1000pt"><defs><clipPath id="_clipPath_Tg5z8ngdebnj0aRXl8vi4Vg8KdQWK3x8"><rect width="1000" height="1000"/></clipPath></defs><g clip-path="url(#_clipPath_Tg5z8ngdebnj0aRXl8vi4Vg8KdQWK3x8)"><rect width="1000" height="1000" style="fill:rgb(105,234,152)"/><path d=" M 380.226 568.487 C 378.331 566.497 375.701 565.373 372.954 565.379 L 357.866 565.379 C 352.446 565.375 347.998 569.668 347.808 575.085 C 346.752 605.219 338.897 607.613 328.718 607.613 C 317.875 607.613 307.424 588.714 299.881 555.592 C 302.898 544.83 307.495 527.348 313.389 502.203 L 348.593 346.3 C 349.246 343.319 348.526 340.203 346.631 337.811 C 344.728 335.417 341.834 334.028 338.776 334.039 L 281.444 334.039 C 276.737 334.039 272.653 337.298 271.587 341.935 L 258.109 403.029 C 249.429 382.047 239.451 364.878 228.638 352.536 C 212.535 334.13 189.481 323.981 163.742 323.981 C 126.255 323.981 57.849 349.398 39.232 444.72 C 35.698 462.587 33.946 480.761 34.001 498.974 C 34.001 671.07 149.55 676.019 162.747 676.019 C 209.316 676.019 243.886 658.015 270.058 619.794 C 282.47 656.687 300.816 676.019 323.678 676.019 C 346.39 676.019 358.208 660.499 367.633 643.732 C 376.987 627.136 381.865 605.571 383.002 575.839 C 383.12 573.11 382.113 570.452 380.216 568.487 L 380.226 568.487 Z  M 232.34 520.237 C 226.838 548.803 219.214 570.528 213.953 583.332 C 196.643 621.322 178.739 625.728 166.76 625.728 C 153.835 625.728 114.467 625.728 114.467 505.029 C 114.467 418.277 132.733 374.272 168.762 374.272 C 177.884 374.272 202.758 386.613 237.761 500.161 L 232.34 520.237 Z " fill="rgb(157,39,76)"/><text transform="matrix(1,0,0,1,403,459.404)" style="font-family:'Open Sans';font-weight:800;font-size:144px;font-style:normal;fill:#000000;stroke:none;">ALPHA</text><text transform="matrix(1,0,0,1,403,655.506)" style="font-family:'Open Sans';font-weight:800;font-size:144px;font-style:normal;fill:#000000;stroke:none;">LABS</text><text transform="matrix(1,0,0,1,879,348.244)" style="font-family:'Open Sans';font-weight:700;font-size:40px;font-style:normal;fill:#000000;stroke:none;">TM</text><text transform="matrix(1,0,0,1,93,781.892)" style="font-family:'Open Sans';font-weight:700;font-size:42px;font-style:italic;fill:#000000;stroke:none;">Where Dreams Turn Into Real Innovation</text><text transform="matrix(1,0,0,1,903,746.311)" style="font-family:'Open Sans';font-weight:700;font-size:24px;font-style:normal;fill:#000000;stroke:none;">TM</text></g></svg>